<?xml version="1.0" standalone="no"?>
<!DOCTYPE svg PUBLIC "-//W3C//DTD SVG 20010904//EN"
 "http://www.w3.org/TR/2001/REC-SVG-20010904/DTD/svg10.dtd">
<svg version="1.0" xmlns="http://www.w3.org/2000/svg"
 width="875.000000pt" height="346.000000pt" viewBox="0 0 875.000000 346.000000"
 preserveAspectRatio="xMidYMid meet">
<metadata>
Created by potrace 1.16, written by Peter Selinger 2001-2019
</metadata>
<g transform="translate(0.000000,346.000000) scale(0.100000,-0.100000)"
fill="#000000" stroke="none">
<path d="M2188 3453 c1207 -2 3178 -2 4380 0 1203 1 216 2 -2193 2 -2409 0
-3393 -1 -2187 -2z"/>
<path d="M3290 2400 c-13 -8 -13 -10 2 -10 11 0 15 -6 11 -20 -5 -18 0 -20 48
-21 52 -1 53 -1 19 -10 -19 -5 -46 -10 -59 -11 -22 0 -23 -2 -8 -13 9 -7 17
-18 17 -25 0 -10 -3 -10 -15 0 -8 6 -20 8 -26 4 -9 -5 -10 -1 -7 14 5 17 2 22
-13 22 -15 0 -19 -7 -19 -32 0 -52 -11 -78 -31 -78 -14 0 -19 7 -19 30 0 33
-19 42 -21 10 -2 -33 -4 -38 -12 -47 -5 -4 -6 9 -2 30 5 25 4 37 -4 37 -8 0
-11 -18 -9 -52 3 -51 2 -53 -26 -64 -17 -6 -32 -16 -34 -23 -3 -10 0 -10 14
-3 11 5 39 13 63 17 34 6 42 4 39 -6 -3 -8 -17 -13 -32 -12 l-26 2 -1 -102
c-1 -56 0 -110 1 -121 1 -16 0 -16 -13 -5 -8 8 -12 19 -9 24 4 6 7 51 7 101 1
89 0 90 -22 86 -14 -3 -32 3 -42 12 -16 15 -22 15 -40 4 -28 -17 -27 -31 2
-23 22 7 22 7 2 -9 -29 -22 -35 -20 -35 13 0 26 -4 30 -37 34 -76 10 -102 8
-112 -10 -8 -14 -12 -16 -22 -5 -11 10 -9 12 6 12 14 0 16 3 7 12 -8 8 -25 7
-66 -6 -30 -10 -60 -15 -65 -12 -5 4 -12 2 -15 -3 -3 -4 -18 -11 -33 -14 -16
-3 -36 -9 -45 -12 -14 -5 -18 -2 -18 13 0 11 -6 22 -13 25 -23 9 -235 8 -241
-1 -3 -5 -34 -15 -68 -22 -35 -7 -67 -16 -72 -21 -5 -4 -8 -53 -7 -108 2 -95
1 -100 -21 -112 -13 -7 -40 -14 -60 -15 -21 0 -44 -7 -53 -14 -8 -7 -24 -10
-35 -7 -11 3 -18 2 -15 -3 3 -4 -2 -10 -10 -14 -16 -6 -17 -4 -17 82 0 51 0
52 -29 52 -16 0 -29 -4 -29 -10 0 -5 -7 -10 -15 -10 -12 0 -15 -14 -15 -70 0
-63 2 -70 20 -70 18 0 20 -7 20 -88 l0 -89 -51 -11 c-28 -7 -55 -10 -59 -7 -5
3 -10 1 -12 -3 -1 -5 -17 -12 -35 -15 -24 -5 -31 -3 -27 7 3 7 -2 16 -10 19
-18 7 -22 53 -5 59 5 2 10 23 11 47 0 35 4 45 20 49 15 4 17 7 6 14 -10 7 -9
11 6 19 15 9 16 13 5 20 -11 7 -9 9 6 9 15 0 16 3 7 9 -11 7 -11 11 2 24 14
14 14 16 -1 21 -9 4 -20 1 -25 -6 -6 -10 -8 -9 -8 3 0 11 20 24 61 38 37 14
58 27 55 34 -3 7 -9 20 -12 30 -7 19 -34 24 -34 6 0 -7 8 -18 18 -25 14 -11
-1 -13 -98 -10 -104 3 -142 -3 -160 -25 -3 -3 -49 -20 -103 -38 -54 -17 -108
-36 -120 -43 -13 -7 -49 -11 -84 -9 l-63 3 0 -74 c0 -81 -8 -101 -36 -97 -11
2 -30 -3 -43 -10 -19 -11 -25 -11 -32 0 -4 7 -5 17 -3 21 3 4 1 8 -4 8 -5 0
-9 -13 -10 -30 -1 -34 6 -36 71 -16 l47 14 0 -85 c0 -52 -4 -82 -10 -78 -5 3
-32 -1 -60 -9 -28 -8 -52 -15 -55 -16 -3 0 -15 -5 -27 -10 -29 -12 66 -1 100
11 49 18 52 14 52 -66 0 -53 -4 -75 -12 -75 -9 0 -8 -4 2 -11 12 -8 9 -9 -10
-5 -22 4 -215 -36 -227 -47 -2 -2 1 -15 6 -28 8 -19 10 -20 10 -5 1 15 8 17
46 14 30 -2 45 1 45 9 0 17 8 20 78 28 l62 7 0 -69 c0 -37 -4 -73 -8 -79 -4
-6 -35 -14 -69 -18 l-63 -7 0 26 c0 15 -7 33 -15 41 -9 9 -15 11 -15 4 0 -18
-38 -53 -53 -47 -8 3 -12 17 -11 35 1 22 -3 32 -17 35 -13 3 -17 1 -12 -6 11
-17 12 -66 2 -73 -5 -3 -9 9 -9 27 0 27 -2 30 -15 19 -12 -10 -15 -9 -15 5 0
32 -25 8 -28 -27 -3 -31 -7 -37 -33 -42 l-29 -5 0 -98 c0 -116 10 -155 53
-220 33 -49 46 -59 303 -226 73 -47 135 -90 139 -96 4 -8 -61 -11 -222 -12
-226 0 -267 -10 -103 -24 133 -11 260 -15 610 -20 428 -6 528 -12 567 -33 29
-16 41 -15 18 1 -17 13 -16 14 6 12 13 -1 30 3 38 9 12 9 14 8 9 -4 -5 -14 3
-15 69 -7 75 8 100 4 73 -13 -8 -6 -11 -10 -6 -10 5 0 17 7 26 15 16 14 55 11
46 -4 -2 -3 11 -7 30 -8 19 -1 32 1 30 5 -2 4 18 7 44 7 26 0 44 -3 38 -6 -5
-3 -2 -9 7 -13 24 -9 25 -8 18 12 -3 9 -3 14 2 10 4 -4 15 -2 23 5 13 10 14 9
7 -2 -6 -11 0 -13 38 -9 26 3 45 3 43 -1 -4 -6 118 -9 491 -14 95 -1 173 -4
173 -7 0 -3 84 -5 187 -5 174 0 188 -1 185 -17 -2 -14 4 -18 33 -18 22 0 34 4
30 10 -3 6 -15 10 -26 10 -34 0 -20 18 19 23 67 9 93 7 98 -7 4 -11 13 -12 35
-6 17 5 31 5 34 -1 4 -5 15 -14 27 -20 16 -8 19 -8 13 1 -5 8 -3 10 6 6 8 -3
22 -9 32 -12 9 -4 17 -10 17 -15 0 -5 7 -9 16 -9 8 0 12 4 9 10 -4 6 19 7 62
4 58 -5 65 -4 55 9 -10 12 -10 16 2 20 8 3 16 -2 19 -15 5 -16 13 -19 44 -18
53 3 60 1 44 -9 -10 -6 0 -8 29 -5 24 2 54 11 68 20 20 13 26 14 33 3 5 -8 9
-18 9 -22 0 -8 126 -8 172 0 15 3 25 9 22 14 -3 5 0 9 5 9 6 0 11 -6 11 -14 0
-10 20 -15 68 -20 95 -9 106 -8 110 4 3 8 8 7 18 -1 11 -9 21 -8 45 1 24 10
33 10 38 1 6 -9 11 -8 21 4 18 21 33 19 21 -3 -9 -16 -6 -18 21 -14 21 3 29 1
24 -7 -5 -7 6 -11 36 -11 27 0 38 3 30 9 -10 6 -4 10 18 15 47 9 88 8 72 -3
-11 -6 -10 -10 4 -15 9 -4 22 -2 28 4 15 15 97 12 126 -5 30 -17 44 -19 35 -5
-8 13 147 9 156 -4 4 -5 26 -4 52 3 65 16 95 14 99 -6 2 -14 14 -16 68 -14 36
1 69 7 75 12 5 5 15 9 23 9 12 0 12 -3 2 -15 -7 -8 -8 -15 -2 -15 5 0 16 7 23
16 15 19 77 13 90 -8 7 -10 11 -10 21 0 9 9 9 12 -5 12 -9 0 -17 5 -17 11 0 7
7 8 18 4 9 -3 48 -9 85 -12 42 -4 63 -9 55 -14 -8 -6 1 -9 25 -9 20 0 37 4 37
9 0 14 43 1 57 -17 7 -9 16 -13 19 -9 4 4 1 13 -6 22 -10 12 -10 15 4 15 9 0
16 5 16 11 0 8 5 8 15 -1 8 -7 12 -16 9 -21 -3 -5 4 -9 16 -9 12 0 18 5 15 10
-3 6 3 10 14 10 12 0 21 -6 21 -14 0 -10 11 -12 46 -8 38 4 45 2 39 -9 -5 -8
0 -7 12 4 11 9 31 17 44 17 13 0 70 2 127 4 58 3 102 0 102 -5 0 -5 -8 -9 -17
-10 -15 0 -15 -2 2 -9 30 -13 47 -12 38 3 -14 23 -12 37 5 29 10 -5 44 -9 77
-11 33 -1 65 -7 70 -13 7 -7 0 -9 -22 -5 -18 4 -35 2 -38 -3 -10 -16 54 -11
91 6 41 19 105 11 69 -9 -28 -15 -45 -34 -38 -40 3 -4 14 4 25 16 13 15 21 18
24 9 3 -6 10 -9 16 -6 6 4 60 6 120 6 92 -2 109 1 105 13 -5 11 1 13 28 10 19
-3 37 0 40 5 4 6 16 5 33 -3 18 -9 40 -11 67 -6 60 12 75 10 75 -6 0 -17 16
-20 25 -5 4 6 11 8 16 5 5 -4 9 -1 9 4 0 6 -8 12 -17 12 -10 1 -2 4 17 8 26 5
34 11 32 24 -2 15 2 16 24 11 18 -5 25 -3 20 4 -9 15 91 20 138 7 22 -6 42
-17 44 -24 3 -10 0 -12 -13 -7 -12 4 -24 0 -37 -13 -24 -27 -23 -31 8 -31 14
0 23 4 19 9 -5 9 19 12 89 12 15 0 34 -5 42 -12 7 -6 21 -9 31 -7 14 3 10 8
-16 21 -19 9 -44 17 -57 17 -12 0 -29 3 -38 6 -31 12 -16 22 32 21 122 -2 183
3 176 15 -5 8 0 9 15 5 13 -3 29 -3 37 0 15 6 -45 41 -74 43 -139 10 -176 10
-167 1 6 -6 39 -14 73 -17 79 -9 78 -29 0 -29 -31 0 -54 3 -51 8 2 4 -2 7 -11
7 -8 0 -17 6 -19 13 -3 7 -6 6 -6 -5 -1 -9 -10 -19 -21 -23 -24 -7 -58 9 -41
19 6 4 11 2 11 -4 0 -7 7 -7 23 1 l22 12 -28 8 c-16 4 -35 5 -42 3 -19 -8
-159 15 -163 25 -4 11 -91 3 -119 -11 -16 -8 -26 -8 -36 0 -8 7 -58 11 -139 9
-103 -2 -124 -4 -120 -16 6 -15 -3 -12 -48 20 -35 26 -294 57 -405 50 -11 -1
-42 -1 -69 -1 -39 1 -49 4 -53 21 -6 23 -26 20 -31 -4 -2 -11 3 -17 14 -17 30
0 2 -17 -55 -34 -59 -17 -142 -20 -206 -7 -22 5 -31 9 -20 10 16 1 17 3 6 10
-8 5 -74 7 -147 4 l-133 -6 5 39 c3 21 7 45 10 52 5 17 34 15 34 -3 0 -8 6
-15 14 -15 21 0 29 31 13 49 -8 9 -17 23 -20 31 -4 12 -6 11 -6 -2 -1 -22 -24
-23 -41 -3 -20 24 -5 46 32 43 17 -1 33 3 35 9 3 9 12 8 35 -2 32 -13 105 -10
122 6 16 14 48 10 60 -7 10 -13 15 -13 40 0 24 12 25 15 9 19 -10 3 -2 5 17 4
28 -2 35 -6 35 -22 0 -17 7 -20 55 -21 86 -1 224 33 150 37 -15 1 -9 4 15 8
22 3 59 4 83 2 l42 -3 2 -57 c0 -31 0 -72 0 -91 -1 -23 2 -30 7 -21 7 11 9 11
13 0 3 -8 8 -12 11 -9 3 3 0 24 -8 45 -32 92 -1 243 88 422 33 68 62 123 64
123 2 0 14 -6 26 -14 46 -29 62 -28 74 4 6 16 9 38 6 49 -3 10 12 53 31 94 34
70 52 90 249 278 285 272 387 378 380 395 -6 17 -104 48 -198 62 -217 34 -659
36 -1310 7 -170 -8 -400 -17 -510 -20 -291 -8 -464 -22 -824 -66 -90 -11 -165
-18 -168 -16 -2 3 11 29 30 58 l34 54 -21 21 c-12 12 -31 25 -43 29 -13 3 -23
13 -23 21 0 20 -13 17 -28 -7 -12 -19 -20 -21 -58 -15 -40 5 -46 3 -54 -17 -7
-18 -9 -19 -9 -4 -1 10 -5 16 -10 13 -5 -3 -12 1 -15 9 -6 18 16 30 39 21 9
-3 15 0 15 9 0 8 9 15 20 15 22 0 27 -16 8 -23 -7 -2 -1 -6 15 -9 25 -5 27 -3
27 28 0 18 6 39 14 46 8 8 61 22 119 32 57 10 109 21 114 25 5 3 17 21 26 39
l16 33 -32 -5 c-118 -18 -265 -51 -264 -59 1 -5 -34 -9 -80 -8 -46 1 -83 -2
-83 -7 0 -4 -28 -9 -62 -9 -35 -1 -70 -4 -78 -7 -18 -7 -48 10 -37 21 5 4 12
2 16 -6 7 -10 9 -10 14 2 3 9 14 13 31 10 14 -3 34 -2 43 3 12 5 -7 10 -57 14
-41 4 -80 4 -86 -1 -5 -5 -44 -6 -85 -2 -41 3 -86 5 -101 5 -15 -1 -27 2 -27
6 1 4 1 17 0 29 -1 20 -4 21 -30 12 -17 -6 -40 -9 -53 -6 -20 4 -20 4 5 6 15
0 27 6 27 12 0 6 -12 9 -27 7 -22 -2 -28 -8 -27 -25 1 -21 -4 -23 -49 -23 -43
0 -48 2 -37 15 23 28 -2 40 -55 28 l-45 -10 0 48 0 49 -57 1 c-32 0 -88 2
-125 4 l-67 3 -1 -112 c-1 -166 2 -157 -50 -172 -56 -17 -104 -18 -94 -3 3 6
9 26 11 45 4 26 1 34 -11 34 -12 0 -16 -10 -16 -41 0 -36 -3 -41 -32 -53 -58
-24 -100 -29 -109 -15 -5 8 -9 57 -8 111 1 53 -1 100 -5 106 -7 11 96 45 141
46 18 1 33 4 33 8 0 3 23 11 50 18 28 7 53 16 56 21 3 5 10 7 15 4 17 -11 9
11 -11 28 -13 11 -20 29 -20 51 0 26 -5 35 -22 40 -36 9 -141 7 -158 -4z m230
-555 l0 -135 -25 0 c-14 0 -25 -4 -25 -8 0 -4 -16 -6 -36 -4 -21 3 -34 1 -31
-5 3 -5 -10 -7 -30 -5 -21 3 -33 1 -30 -5 3 -5 -7 -8 -24 -5 -17 3 -29 0 -29
-7 0 -6 -5 -11 -11 -11 -5 0 -7 5 -3 12 5 8 2 9 -10 5 -10 -4 -25 -7 -34 -8
-14 0 -13 -2 3 -9 13 -6 15 -9 5 -9 -37 -1 -41 12 -38 140 l3 124 155 32 c85
17 156 32 158 32 1 1 2 -60 2 -134z m-1342 -67 l-3 -92 -30 -8 c-31 -9 -66
-15 -98 -17 -10 0 -16 -4 -14 -8 3 -5 -8 -8 -24 -8 -32 0 -33 4 -29 102 1 43
-2 54 -16 60 -13 5 15 16 86 34 58 15 111 28 118 28 10 1 12 -21 10 -91z m961
-16 l-2 -109 -76 -12 c-42 -7 -84 -14 -93 -17 -15 -4 -17 0 -12 25 5 26 3 31
-12 31 -14 0 -15 -3 -6 -12 16 -16 15 -23 -4 -42 -14 -15 -13 -16 8 -17 19 -1
18 -3 -7 -9 -41 -10 -85 -12 -84 -2 1 4 0 21 -1 37 l-3 30 -6 -35 c-5 -31 -10
-35 -42 -41 l-37 -5 0 44 c-2 57 -12 69 -12 14 0 -22 -6 -44 -12 -49 -16 -9
-9 -8 -86 -18 -34 -4 -65 -12 -68 -16 -3 -5 -14 -9 -24 -9 -10 0 -23 -6 -27
-14 -4 -7 -24 -16 -44 -20 l-37 -7 2 83 1 83 45 11 c37 9 45 15 45 33 0 13 7
26 15 31 25 14 162 32 228 30 54 -1 62 1 62 17 0 16 20 23 128 45 182 37 163
47 161 -80z m-1649 42 c0 -36 -4 -53 -11 -49 -6 4 -8 13 -5 21 7 17 -10 19
-20 2 -5 -8 -10 -6 -15 8 -7 17 -8 17 -8 -3 -1 -13 -5 -23 -11 -23 -5 0 -10
-9 -10 -20 0 -10 -9 -24 -19 -30 -25 -13 -31 -13 -31 1 0 6 -6 16 -13 23 -8 8
-11 29 -9 53 4 38 6 40 55 55 29 9 62 17 75 17 20 1 22 -3 22 -55z m-5 -186
c-5 -40 -8 -79 -8 -86 0 -7 -6 -11 -12 -8 -6 2 -30 1 -53 -4 -27 -5 -43 -3
-45 4 -3 6 -11 3 -21 -9 -14 -19 -15 -15 -16 62 l0 81 63 15 c105 25 100 28
92 -55z m2322 -50 c-3 -129 -8 -148 -35 -148 -15 0 -15 2 -2 11 11 7 -10 8
-69 3 -74 -6 -83 -4 -78 9 3 9 7 61 8 117 1 55 4 102 8 104 3 2 28 7 56 11 27
3 51 7 52 8 1 2 16 4 33 5 l31 2 -4 -122z m-293 -21 c-2 -163 -1 -157 -23
-157 -11 0 -22 4 -25 9 -3 4 -18 6 -33 3 -25 -5 -25 -6 -8 -13 20 -8 20 -8 0
-8 -36 -1 -65 11 -66 28 0 11 -3 9 -9 -6 -5 -13 -15 -23 -22 -24 -7 -1 -31 -2
-53 -3 -22 -1 -45 -5 -52 -9 -19 -12 -23 5 -28 136 l-5 125 58 7 c31 4 71 9
87 10 17 2 37 5 45 8 17 7 62 13 105 16 l30 1 -1 -123z m-1337 16 c-3 -49 -7
-94 -8 -100 -2 -13 -32 -18 -73 -14 -11 1 -35 -6 -53 -14 -61 -29 -68 -21 -71
81 l-3 91 88 20 c135 32 125 38 120 -64z m-364 18 c123 28 117 30 117 -48 0
-109 -1 -109 -84 -122 -40 -6 -80 -13 -89 -17 -15 -5 -17 4 -17 75 0 56 -4 80
-11 79 -7 -2 -12 10 -11 30 0 45 5 52 9 16 l4 -31 82 18z m1327 -90 c0 -91 -4
-131 -12 -138 -13 -10 -189 -33 -254 -33 l-35 0 3 128 3 127 80 12 c44 6 105
16 135 21 30 5 61 10 68 11 9 1 12 -31 12 -128z m-355 -53 c-3 -51 -5 -98 -5
-105 0 -15 -66 -11 -82 5 -9 9 -7 16 8 28 16 13 16 15 2 10 -21 -6 -23 4 -5
23 10 11 10 14 0 18 -20 7 -15 30 9 53 12 11 16 20 10 20 -7 0 -12 6 -12 14 0
9 13 16 33 19 17 2 35 5 39 5 4 1 5 -40 3 -90z m-1302 -10 c-3 -39 -10 -77
-17 -83 -6 -7 -30 -12 -52 -12 -22 0 -49 -3 -61 -7 -18 -6 -22 -2 -27 28 -4
19 -4 53 0 75 5 34 11 42 33 47 14 3 40 9 56 13 71 21 73 19 68 -61z m997 -53
l0 -104 -35 -7 c-19 -3 -42 -4 -50 0 -24 9 -29 -19 -11 -71 11 -31 13 -50 6
-57 -5 -5 -11 -21 -11 -36 -1 -14 -5 13 -10 59 -9 93 -16 121 -27 105 -4 -6
-26 -14 -49 -18 -41 -6 -43 -5 -43 19 0 31 -16 33 -26 3 -4 -14 -1 -25 9 -33
31 -23 49 -106 26 -121 -6 -3 -10 1 -9 12 6 56 -1 86 -20 91 -11 3 -20 10 -20
16 0 6 -6 2 -14 -9 -8 -10 -17 -16 -20 -13 -3 3 3 15 14 27 21 22 27 37 11 27
-15 -8 17 51 35 65 22 19 16 90 -8 90 -10 0 -18 4 -18 8 0 12 171 48 238 51
l32 1 0 -105z m-557 -42 c-1 -38 -3 -84 -3 -103 -1 -19 -4 -30 -6 -24 -3 8
-17 9 -42 3 -43 -9 -50 -6 -30 15 11 11 18 12 26 4 7 -7 14 -9 18 -6 3 4 -3
11 -14 17 -17 9 -24 7 -40 -13 -12 -16 -31 -25 -57 -27 l-38 -4 0 85 1 85 32
8 c17 4 57 12 88 16 31 5 59 9 62 10 3 0 4 -29 3 -66z m237 -673 c0 -28 2 -30
41 -30 22 0 50 5 61 11 11 6 18 7 15 2 -4 -6 264 -9 681 -8 378 0 695 -1 706
-4 15 -3 14 -6 -10 -17 -16 -7 -23 -13 -16 -13 6 -1 12 -6 12 -12 0 -14 41
-48 58 -49 6 0 12 -7 12 -15 0 -8 7 -15 15 -15 8 0 15 5 15 10 0 15 21 12 42
-7 15 -13 37 -16 113 -15 59 2 95 -1 95 -8 0 -5 8 -10 18 -10 10 0 24 -6 30
-12 9 -9 15 -10 20 -2 8 12 133 13 125 2 -2 -5 1 -8 6 -8 6 0 11 5 11 11 0 8
4 9 13 0 8 -6 17 -8 20 -5 3 4 17 4 31 0 17 -4 23 -11 20 -21 -4 -8 -1 -15 7
-15 7 0 10 -2 8 -5 -3 -2 -20 -1 -37 4 -20 6 -32 6 -32 0 0 -5 -5 -9 -11 -9
-5 0 -8 4 -5 9 3 5 -3 11 -14 14 -11 3 -18 1 -14 -4 3 -5 -2 -9 -10 -9 -9 0
-16 5 -16 10 0 6 -11 10 -25 10 -14 0 -25 -5 -25 -11 0 -7 -12 -10 -30 -7 -16
3 -30 2 -30 -1 0 -3 -55 -5 -122 -4 -69 1 -128 -3 -135 -8 -8 -7 -18 -7 -31 0
-11 6 -57 10 -103 10 -46 0 -143 0 -216 0 l-132 1 -21 48 c-12 26 -19 57 -17
69 5 30 -14 56 -35 48 -18 -7 -30 -53 -16 -62 6 -3 14 0 18 7 5 8 10 3 14 -15
4 -14 4 -30 1 -35 -3 -4 -1 -10 4 -12 5 -2 5 -13 0 -26 -8 -21 -39 -29 -89
-23 -27 3 -93 4 -175 2 -44 -1 -186 0 -315 3 -129 3 -342 8 -473 10 -151 3
-244 9 -252 16 -7 6 -15 7 -18 3 -8 -13 -474 -6 -482 8 -3 4 -24 10 -48 14
-61 10 -116 49 -117 83 0 9 8 8 26 -5 27 -17 27 -17 15 5 -13 24 -9 27 20 12
15 -8 19 -7 19 4 0 17 21 26 61 26 24 0 29 4 29 24 0 14 5 28 10 31 6 4 10 -7
10 -26 l0 -31 133 7 c72 3 199 6 282 6 82 -1 170 2 195 5 44 6 46 7 42 35 -3
17 0 29 7 29 6 0 11 -13 11 -30z m3620 -71 c0 -8 17 -10 54 -5 71 8 108 -10
129 -66 9 -23 20 -38 24 -35 6 7 42 -57 43 -75 0 -5 -16 -8 -35 -8 -24 0 -37
6 -45 20 -13 25 -33 26 -26 2 6 -17 -3 -18 -119 -19 -74 0 -125 4 -125 10 0 5
-7 4 -15 -3 -19 -16 -20 -2 -3 72 6 29 11 59 9 66 -1 6 3 12 10 12 6 0 8 7 5
16 -5 13 -3 14 6 7 7 -6 23 -13 34 -17 16 -5 23 -2 27 14 5 21 27 28 27 9z"/>
<path d="M5715 2390 c-3 -5 -29 -8 -58 -7 -29 2 -68 -1 -87 -5 -68 -16 -115
-32 -135 -45 -26 -17 -36 -16 -29 2 5 12 2 13 -17 7 -17 -7 -26 -21 -31 -47
-5 -21 -7 -39 -6 -40 2 -1 117 -5 256 -8 l254 -7 -4 50 c-2 29 1 49 7 49 26
-3 46 2 41 10 -3 5 -15 7 -26 4 -14 -4 -20 0 -20 12 0 9 -6 15 -12 13 -7 -3
-33 1 -57 9 -53 16 -68 16 -76 3z"/>
<path d="M8455 363 c-5 -15 -4 -16 6 -5 18 17 26 15 32 -8 4 -17 0 -20 -26
-20 -18 0 -39 -5 -47 -10 -12 -8 -10 -10 8 -10 13 0 30 -7 38 -15 14 -13 12
-15 -13 -16 -24 0 -25 -2 -8 -8 11 -5 58 -6 104 -4 58 3 81 1 76 -6 -3 -6 -26
-11 -51 -11 -38 0 -43 -2 -32 -14 9 -10 15 -11 20 -2 6 8 8 8 8 -1 0 -6 -5
-15 -11 -19 -7 -4 -1 -12 17 -19 28 -12 28 -13 -13 -8 -27 4 -43 2 -43 -5 0
-9 109 -23 120 -14 2 1 -2 7 -10 12 -8 6 -10 10 -4 10 21 0 33 -22 24 -46 -9
-23 -7 -24 28 -23 36 1 37 1 11 12 -37 17 -25 37 22 37 22 0 39 5 39 11 0 8
-15 10 -47 5 -33 -4 -43 -3 -33 4 8 5 24 10 35 10 18 1 19 1 3 11 -24 14 -22
27 5 32 17 3 14 5 -10 7 -48 4 -51 4 -59 13 -5 4 18 6 49 5 41 -3 57 0 57 9 0
9 -17 13 -52 14 l-53 2 53 10 c28 5 52 14 52 18 0 9 -24 13 -44 10 -6 -1 -20
3 -32 10 -13 7 -36 9 -56 5 -62 -12 -103 -12 -103 2 0 14 -23 32 -41 32 -7 0
-15 -8 -19 -17z"/>
<path d="M550 241 c0 -5 6 -12 13 -14 6 -3 -4 -6 -23 -6 -20 -1 -40 -5 -45
-10 -15 -13 -123 -23 -130 -11 -3 5 -18 7 -33 4 -36 -7 -108 10 -105 24 2 7
-7 12 -20 11 -12 0 -17 -3 -10 -5 7 -3 10 -11 7 -18 -4 -10 11 -16 51 -21 30
-3 53 -11 50 -16 -4 -5 1 -9 9 -9 9 0 16 5 16 11 0 8 5 8 15 -1 11 -9 33 -11
78 -6 53 6 59 5 44 -6 -16 -12 -4 -14 87 -16 70 -2 106 0 106 7 0 6 21 12 48
12 l47 2 -60 9 c-33 4 -91 8 -128 8 -42 0 -66 4 -62 10 3 6 21 10 38 10 35 0
51 8 55 28 1 7 -8 12 -23 12 -14 0 -25 -4 -25 -9z"/>
<path d="M8219 232 l-34 -16 40 -6 c33 -5 23 -7 -56 -14 -134 -11 -148 -26
-18 -19 93 5 109 3 127 -13 12 -10 19 -21 16 -26 -3 -4 6 -8 20 -8 14 0 26 -4
26 -10 0 -5 -9 -10 -19 -10 -10 0 -22 -7 -25 -15 -3 -9 -13 -15 -22 -13 -9 2
-19 -3 -21 -9 -3 -9 14 -6 51 8 52 20 58 21 74 6 10 -9 38 -19 62 -22 33 -5
41 -4 30 4 -8 6 -28 11 -45 12 l-30 2 28 4 c24 4 28 8 23 26 -3 12 -6 25 -6
28 0 12 -74 19 -81 7 -4 -6 -12 -7 -18 -3 -9 5 -9 11 1 23 11 15 11 15 -3 4
-11 -8 -24 -9 -40 -4 -22 9 -22 9 7 15 16 3 57 9 92 13 120 13 72 29 -78 25
-31 -1 -32 0 -12 9 12 5 22 11 22 12 0 11 -83 3 -111 -10z"/>
<path d="M5579 35 c-21 -12 -18 -13 36 -18 87 -9 184 -9 325 -2 69 4 152 6
185 5 45 -1 57 2 49 10 -12 12 -294 22 -292 11 2 -18 -4 -22 -16 -12 -21 18
-256 22 -287 6z"/>
<path d="M8210 40 c-13 -9 -13 -10 0 -11 8 0 3 -6 -12 -12 -21 -10 32 -12 263
-13 236 -1 289 1 289 12 0 7 -6 11 -14 8 -8 -3 -24 0 -36 6 -28 15 -117 15
-136 -1 -16 -13 -65 -4 -76 14 -6 9 -10 9 -16 0 -4 -7 -19 -10 -34 -8 -14 3
-46 1 -71 -4 -36 -6 -49 -5 -62 8 -16 15 -17 14 -11 -5 6 -18 3 -20 -24 -16
-16 2 -28 9 -27 14 3 15 -16 19 -33 8z"/>
</g>
</svg>
