<?xml version="1.0" standalone="no"?>
<!DOCTYPE svg PUBLIC "-//W3C//DTD SVG 20010904//EN"
 "http://www.w3.org/TR/2001/REC-SVG-20010904/DTD/svg10.dtd">
<svg version="1.0" xmlns="http://www.w3.org/2000/svg"
 width="481.000000pt" height="119.000000pt" viewBox="0 0 481.000000 119.000000"
 preserveAspectRatio="xMidYMid meet">

<g transform="translate(0.000000,119.000000) scale(0.100000,-0.100000)"
fill="#000000" stroke="none">
<path d="M105 903 c10 -15 51 -77 92 -138 l73 -110 0 -92 0 -93 70 0 70 0 0
100 0 100 85 128 85 127 -66 3 c-37 2 -72 1 -79 -2 -6 -2 -31 -36 -54 -76 -24
-39 -46 -69 -49 -65 -4 4 -25 37 -48 73 l-41 67 -78 3 -78 3 18 -28z"/>
<path d="M1660 700 l0 -230 180 0 180 0 0 55 0 55 -110 0 -110 0 0 175 0 175
-70 0 -70 0 0 -230z"/>
<path d="M2940 885 l0 -45 60 0 60 0 0 45 0 45 -60 0 -60 0 0 -45z"/>
<path d="M3623 894 c-55 -31 -63 -39 -63 -65 0 -22 -5 -29 -20 -29 -17 0 -20
-7 -20 -45 0 -38 3 -45 20 -45 18 0 20 -7 21 -77 1 -133 27 -173 114 -173 75
0 86 7 83 53 -3 39 -5 41 -33 42 l-30 0 -3 78 -3 77 36 0 c35 0 35 0 35 45 0
45 0 45 -35 45 l-34 0 -3 65 -3 64 -62 -35z"/>
<path d="M3830 885 l0 -45 60 0 60 0 0 45 0 45 -60 0 -60 0 0 -45z"/>
<path d="M700 788 c-65 -33 -90 -76 -90 -153 0 -68 21 -110 73 -149 23 -17 43
-21 110 -21 93 0 134 18 168 71 l19 31 -61 7 c-48 6 -65 4 -78 -8 -27 -25 -67
-20 -91 12 l-22 27 132 3 133 3 -7 46 c-13 98 -65 143 -174 150 -56 4 -74 1
-112 -19z m142 -85 c29 -26 21 -33 -42 -33 -46 0 -60 3 -60 15 0 33 71 47 102
18z"/>
<path d="M1105 791 c-59 -27 -78 -76 -50 -130 15 -31 43 -45 120 -61 77 -17
85 -20 85 -40 0 -35 -66 -42 -95 -10 -17 18 -26 20 -74 14 -31 -3 -57 -8 -59
-9 -1 -1 3 -15 10 -29 16 -37 60 -58 133 -63 139 -12 232 59 195 148 -16 37
-47 54 -130 69 -75 14 -96 26 -79 46 15 18 58 18 79 -1 13 -11 29 -13 74 -7
l58 7 -23 29 c-12 16 -37 35 -55 42 -47 20 -141 17 -189 -5z"/>
<path d="M2161 788 c-54 -28 -79 -60 -92 -117 -27 -122 71 -222 205 -208 111
11 166 69 166 173 0 105 -58 163 -173 171 -51 4 -70 0 -106 -19z m135 -89 c41
-46 14 -149 -40 -149 -38 0 -66 36 -66 85 0 73 63 111 106 64z"/>
<path d="M2563 794 c-94 -47 -95 -237 -1 -294 42 -25 83 -25 131 0 l37 20 0
-34 c0 -19 -7 -42 -16 -50 -19 -20 -58 -21 -76 -3 -7 8 -41 17 -76 21 -59 7
-62 6 -62 -14 0 -36 28 -77 62 -91 45 -19 184 -18 222 1 16 8 39 28 50 43 19
26 21 44 24 218 l4 189 -61 0 c-54 0 -61 -2 -61 -20 0 -18 -2 -18 -36 5 -43
29 -94 32 -141 9z m151 -96 c33 -46 9 -128 -36 -128 -35 0 -58 29 -58 73 0 69
60 104 94 55z"/>
<path d="M3213 799 c-72 -21 -97 -107 -45 -159 22 -21 44 -30 99 -40 78 -13
104 -30 83 -55 -18 -21 -66 -19 -88 5 -16 18 -27 20 -75 14 -64 -8 -71 -21
-33 -59 32 -32 98 -48 171 -42 78 6 123 29 141 73 31 75 -10 121 -129 144 -69
13 -82 19 -82 35 0 26 55 33 78 10 12 -12 28 -14 71 -9 31 4 56 10 56 13 0 18
-36 55 -66 67 -37 16 -132 17 -181 3z"/>
<path d="M4125 795 c-76 -27 -113 -96 -102 -192 6 -53 30 -90 78 -118 50 -29
186 -29 226 1 27 20 73 79 73 94 0 4 -25 10 -56 14 -52 6 -58 4 -80 -19 -39
-42 -106 -25 -117 31 -7 37 10 92 33 104 30 16 68 12 83 -10 13 -18 21 -20 71
-14 66 8 69 18 25 68 -47 55 -146 72 -234 41z"/>
<path d="M4514 792 c-52 -25 -71 -65 -54 -117 12 -38 41 -58 100 -70 90 -18
110 -26 110 -44 0 -36 -70 -43 -93 -10 -13 18 -21 20 -76 13 -33 -3 -61 -10
-61 -15 0 -4 12 -21 26 -38 58 -70 240 -70 298 0 57 68 17 151 -80 164 -89 12
-109 20 -109 41 0 25 50 32 74 9 14 -12 30 -14 74 -9 54 6 55 7 45 30 -19 40
-57 57 -138 61 -59 3 -84 0 -116 -15z"/>
<path d="M2940 635 l0 -165 60 0 60 0 0 165 0 165 -60 0 -60 0 0 -165z"/>
<path d="M3830 635 l0 -165 60 0 60 0 0 165 0 165 -60 0 -60 0 0 -165z"/>
</g>
</svg>
