<?xml version="1.0" encoding="UTF-8"?>
<svg version="1.1" xmlns="http://www.w3.org/2000/svg" width="265" height="167">
<path d="M0 0 C87.45 0 174.9 0 265 0 C265 55.11 265 110.22 265 167 C177.55 167 90.1 167 0 167 C0 111.89 0 56.78 0 0 Z " fill="#FEFEFE" transform="translate(0,0)"/>
<path d="M0 0 C2.5625 0.25 2.5625 0.25 5 1 C8.21824216 7.43648432 6.13657406 19.0384839 5 26 C6.485 26.495 6.485 26.495 8 27 C5.69 27 3.38 27 1 27 C1 33.6 1 40.2 1 47 C52.81 47 104.62 47 158 47 C153.7657999 52.64560014 149.51205471 58.25080365 145.10498047 63.75927734 C143.01874606 66.37706324 141.027157 68.95853132 139.19140625 71.76171875 C135.35077097 77.55619343 131.54427294 79.71749249 124.8046875 81.4140625 C114.84662521 82.94764499 104.97029485 83.14142818 95.42578125 79.6796875 C89.12680675 77.91475745 82.1972407 77.99796458 76.15625 80.5 C71.75958483 82.26013547 67.82263947 82.4595062 63.125 82.375 C61.93547729 82.36629883 61.93547729 82.36629883 60.72192383 82.35742188 C55.57011637 82.24337141 51.27899216 81.43829889 46.421875 79.6796875 C40.08642606 77.90167441 32.85829573 78.01887407 26.75 80.5 C18.00874368 83.89937746 6.72407003 83.14996082 -1.8359375 79.6796875 C-7.98009568 77.74993385 -14.6997641 78.36152289 -20.6875 80.5 C-27.84344601 83.00281855 -35.5273906 82.23406085 -43 82 C-43.495 80.2365625 -43.495 80.2365625 -44 78.4375 C-46.2914246 72.29429976 -51.09353261 68.3604741 -56.9375 65.625 C-57.618125 65.41875 -58.29875 65.2125 -59 65 C-60 64 -60 64 -60.09765625 60.18359375 C-60.09191138 58.60152953 -60.07889593 57.01948969 -60.0625 55.4375 C-60.0315625 51.2609375 -60.0315625 51.2609375 -60 47 C-51.09 47 -42.18 47 -33 47 C-33 33.14 -33 19.28 -33 5 C-30.03 5 -27.06 5 -24 5 C-24 12.26 -24 19.52 -24 27 C-22.35 27 -20.7 27 -19 27 C-19 24.03 -19 21.06 -19 18 C-18.505 19.485 -18.505 19.485 -18 21 C-16.68 21 -15.36 21 -14 21 C-13.505 19.515 -13.505 19.515 -13 18 C-13 19.32 -13 20.64 -13 22 C-11.68 22 -10.36 22 -9 22 C-9 20.68 -9 19.36 -9 18 C-9.99 17.67 -10.98 17.34 -12 17 C-9.36 17 -6.72 17 -4 17 C-4.99 18.32 -5.98 19.64 -7 21 C-5.68 21 -4.36 21 -3 21 C-2.98018066 20.43490723 -2.96036133 19.86981445 -2.93994141 19.28759766 C-2.84481764 16.73292003 -2.73508942 14.17907459 -2.625 11.625 C-2.5940625 10.73554687 -2.563125 9.84609375 -2.53125 8.9296875 C-2.49257812 8.07890625 -2.45390625 7.228125 -2.4140625 6.3515625 C-2.3826416 5.56604004 -2.3512207 4.78051758 -2.31884766 3.97119141 C-2 2 -2 2 0 0 Z " fill="#020202" transform="translate(92,37)"/>
<path d="M0 0 C1.54238266 0.11583111 3.08390272 0.24316572 4.625 0.375 C5.91277344 0.47941406 5.91277344 0.47941406 7.2265625 0.5859375 C10 1 10 1 12.7890625 2.01953125 C16.85560362 3.26126096 20.52323557 3.34083783 24.75 3.3125 C25.95197021 3.31056641 25.95197021 3.31056641 27.17822266 3.30859375 C32.39786971 3.22391077 36.72028698 2.45953483 41.64453125 0.6796875 C47.70954955 -1.07041728 54.34492255 -0.86861248 60.1875 1.5 C68.96175989 4.86854584 80.18637715 4.16607504 88.76953125 0.6796875 C95.17489156 -1.27220864 102.44684251 -0.7595484 108.6875 1.5 C113.51558498 3.16485689 118.06598151 3.33799407 123.125 3.375 C124.2536145 3.39530273 124.2536145 3.39530273 125.4050293 3.41601562 C130.16223595 3.37847931 133.75367192 2.49509099 138.13330078 0.68115234 C144.21503178 -1.5380511 151.71450771 -0.66637026 157.6875 1.5 C162.51558498 3.16485689 167.06598151 3.33799407 172.125 3.375 C173.2536145 3.39530273 173.2536145 3.39530273 174.4050293 3.41601562 C179.18288902 3.37831635 182.84394165 2.49881679 187.24560547 0.66796875 C190.53649286 -0.5850048 193.53567091 -0.18558906 197 0 C197 2.31 197 4.62 197 7 C196.20335937 7.12117188 195.40671875 7.24234375 194.5859375 7.3671875 C192.99652344 7.61855469 192.99652344 7.61855469 191.375 7.875 C190.33085937 8.03742188 189.28671875 8.19984375 188.2109375 8.3671875 C185.0029054 8.91716129 185.0029054 8.91716129 182.05859375 10.05078125 C175.26869907 12.15798994 166.21300298 12.20898867 159.5625 9.5 C151.17202355 6.15654639 140.61573447 7.00973275 132.40234375 10.3203125 C125.60621331 12.24312014 117.14059439 12.1514392 110.5625 9.5 C104.04301739 6.89716474 94.50890338 6.63556663 87.75390625 8.6796875 C87.17511719 8.95039062 86.59632812 9.22109375 86 9.5 C79.75956318 12.41868983 70.09186044 12.1247768 63.52734375 10.3203125 C62.17578125 9.7734375 60.82421875 9.2265625 59.47265625 8.6796875 C52.90813956 6.8752232 43.24043682 6.58131017 37 9.5 C29.99728064 12.77521395 19.13586463 12.08177047 12 9.5625 C11.33097656 9.28921875 10.66195312 9.0159375 9.97265625 8.734375 C6.71379102 7.52117369 3.44903766 7.31354888 0 7 C0 4.69 0 2.38 0 0 Z " fill="#15AFE8" transform="translate(32,115)"/>
<path d="M0 0 C4.16298127 -0.26572221 7.07093532 -0.08380438 10.9375 1.5 C18.08603467 4.07936818 28.96209693 4.79166959 36 1.5 C42.26435682 -1.42987736 51.91681097 -1.10665871 58.5078125 0.6796875 C59.87199064 1.22432136 61.23528303 1.77117934 62.59765625 2.3203125 C69.39378669 4.24312014 77.85940561 4.1514392 84.4375 1.5 C92.81371878 -1.83777219 103.33281336 -0.99539344 111.52734375 2.3203125 C118.09186044 4.1247768 127.75956318 4.41868983 134 1.5 C140.26435682 -1.42987736 149.91681097 -1.10665871 156.5078125 0.6796875 C157.87199064 1.22432136 159.23528303 1.77117934 160.59765625 2.3203125 C168.54586743 4.56907469 177.41356454 3.73687881 184.9921875 0.66796875 C188.35763274 -0.45166381 191.48547927 -0.19170113 195 0 C195 1.98 195 3.96 195 6 C193.82244141 6.29003906 193.82244141 6.29003906 192.62109375 6.5859375 C191.57050781 6.84632813 190.51992187 7.10671875 189.4375 7.375 C188.3340625 7.64699219 187.230625 7.91898438 186.09375 8.19921875 C183.85200654 8.779468 181.63429144 9.45523619 179.4375 10.1875 C172.01161067 11.9427102 165.7161004 11.41679372 158.5 9 C148.06418828 5.55827175 140.70644541 6.93988618 130.34375 10.09375 C123.10916896 12.0545243 117.73813856 11.36145789 110.6875 9 C100.00309558 5.4928098 91.60644185 6.57508537 81.11328125 10.09375 C72.24840247 12.67424169 65.01428365 10.52774692 56.41015625 7.90625 C47.50722796 5.54029426 40.76033751 7.26104545 32.19140625 10.09375 C23.77440038 12.4838912 16.86504084 11.03321473 8.82421875 7.97265625 C5.88786086 6.96137947 3.070559 6.43087608 0 6 C0 4.02 0 2.04 0 0 Z " fill="#0FADE9" transform="translate(33,127)"/>
<path d="M0 0 C6.6 0 13.2 0 20 0 C20 2.97 20 5.94 20 9 C13.4 9 6.8 9 0 9 C0 6.03 0 3.06 0 0 Z " fill="#232323" transform="translate(219,73)"/>
<path d="M0 0 C6.6 0 13.2 0 20 0 C20 2.97 20 5.94 20 9 C13.4 9 6.8 9 0 9 C0 6.03 0 3.06 0 0 Z " fill="#252525" transform="translate(174,73)"/>
<path d="M0 0 C6.6 0 13.2 0 20 0 C20 2.97 20 5.94 20 9 C13.4 9 6.8 9 0 9 C0 6.03 0 3.06 0 0 Z " fill="#222222" transform="translate(219,63)"/>
<path d="M0 0 C6.6 0 13.2 0 20 0 C20 2.97 20 5.94 20 9 C13.4 9 6.8 9 0 9 C0 6.03 0 3.06 0 0 Z " fill="#232323" transform="translate(174,63)"/>
<path d="M0 0 C6.6 0 13.2 0 20 0 C20 2.97 20 5.94 20 9 C13.4 9 6.8 9 0 9 C0 6.03 0 3.06 0 0 Z " fill="#232323" transform="translate(219,53)"/>
<path d="M0 0 C6.6 0 13.2 0 20 0 C20 2.97 20 5.94 20 9 C13.4 9 6.8 9 0 9 C0 6.03 0 3.06 0 0 Z " fill="#242424" transform="translate(174,53)"/>
<path d="M0 0 C6.27 0 12.54 0 19 0 C19 2.97 19 5.94 19 9 C12.73 9 6.46 9 0 9 C0 6.03 0 3.06 0 0 Z " fill="#1A1A1A" transform="translate(197,73)"/>
<path d="M0 0 C6.27 0 12.54 0 19 0 C19 2.97 19 5.94 19 9 C12.73 9 6.46 9 0 9 C0 6.03 0 3.06 0 0 Z " fill="#1B1B1B" transform="translate(152,73)"/>
<path d="M0 0 C6.27 0 12.54 0 19 0 C19 2.97 19 5.94 19 9 C12.73 9 6.46 9 0 9 C0 6.03 0 3.06 0 0 Z " fill="#181818" transform="translate(197,63)"/>
<path d="M0 0 C6.27 0 12.54 0 19 0 C19 2.97 19 5.94 19 9 C12.73 9 6.46 9 0 9 C0 6.03 0 3.06 0 0 Z " fill="#1A1A1A" transform="translate(152,63)"/>
<path d="M0 0 C6.27 0 12.54 0 19 0 C19 2.97 19 5.94 19 9 C12.73 9 6.46 9 0 9 C0 6.03 0 3.06 0 0 Z " fill="#1A1A1A" transform="translate(197,53)"/>
<path d="M0 0 C6.27 0 12.54 0 19 0 C19 2.97 19 5.94 19 9 C12.73 9 6.46 9 0 9 C0 6.03 0 3.06 0 0 Z " fill="#1B1B1B" transform="translate(152,53)"/>
<path d="M0 0 C1.258125 -0.020625 2.51625 -0.04125 3.8125 -0.0625 C4.52019531 -0.07410156 5.22789063 -0.08570313 5.95703125 -0.09765625 C8 0 8 0 11 1 C11 2.32 11 3.64 11 5 C8.03 4.67 5.06 4.34 2 4 C1.67 5.98 1.34 7.96 1 10 C0.67 10 0.34 10 0 10 C0 6.7 0 3.4 0 0 Z " fill="#8A8A8A" transform="translate(72,54)"/>
<path d="M0 0 C0.66 0 1.32 0 2 0 C2 2.97 2 5.94 2 9 C1.01 9 0.02 9 -1 9 C-1.09765625 2.84765625 -1.09765625 2.84765625 -1 1 C-0.67 0.67 -0.34 0.34 0 0 Z " fill="#BEBEBE" transform="translate(98,54)"/>
</svg>
