<?xml version="1.0" encoding="UTF-8"?>
<svg version="1.1" xmlns="http://www.w3.org/2000/svg" width="500" height="500">
<path d="M0 0 C165 0 330 0 500 0 C500 165 500 330 500 500 C335 500 170 500 0 500 C0 335 0 170 0 0 Z " fill="#EEE9E9" transform="translate(0,0)"/>
<path d="M0 0 C-0.60665609 4.7429476 -2.64070592 8.59678555 -4.875 12.75 C-5.4630542 13.85577393 -5.4630542 13.85577393 -6.06298828 14.98388672 C-9.4733794 21.27558522 -13.27081461 27.27706508 -17.28076172 33.20214844 C-22.08368972 40.3653023 -25.63111378 47.11949166 -24 56 C-21.8744845 58.95910144 -21.8744845 58.95910144 -19 61 C-16.6875 63 -16.6875 63 -15 65 C-14.89453125 67.625 -14.89453125 67.625 -15 70 C-14.28344238 69.98952637 -13.56688477 69.97905273 -12.82861328 69.96826172 C-9.59411095 69.92678701 -6.35966447 69.90070108 -3.125 69.875 C-1.99707031 69.85824219 -0.86914062 69.84148437 0.29296875 69.82421875 C1.36933594 69.81777344 2.44570313 69.81132812 3.5546875 69.8046875 C4.54968262 69.79421387 5.54467773 69.78374023 6.56982422 69.77294922 C9 70 9 70 11 72 C1.83519571 74.14182487 -7.32500266 74.82577584 -16.6875 75.4375 C-17.61237213 75.49870026 -18.53724426 75.55990051 -19.49014282 75.62295532 C-70.28726955 78.90939835 -121.2901011 80.2978532 -172.1875 80.25 C-172.96022121 80.2496664 -173.73294243 80.24933281 -174.52907944 80.24898911 C-217.79296714 80.22389193 -217.79296714 80.22389193 -232 78 C-223.14798465 72.09865643 -208.31816495 73.75594354 -198 74 C-197.79632813 73.42894531 -197.59265625 72.85789062 -197.3828125 72.26953125 C-195.82329628 69.70998626 -194.01072006 68.51015324 -191.55566406 66.85302734 C-186.39008669 63.35652896 -186.39008669 63.35652896 -183.44042969 58.07177734 C-182.94968612 53.66657069 -183.36900727 49.38189396 -184 45 C-183.01 44.67 -182.02 44.34 -181 44 C-181.10828125 43.09121094 -181.10828125 43.09121094 -181.21875 42.1640625 C-181.8924937 36.08165405 -182.11713363 30.11697862 -182 24 C-180.35 24 -178.7 24 -177 24 C-176.34 28.95 -175.68 33.9 -175 39 C-174.01 38.34 -173.02 37.68 -172 37 C-171.58571654 35.06923522 -171.58571654 35.06923522 -171.70703125 32.8671875 C-171.71669922 32.06152344 -171.72636719 31.25585938 -171.73632812 30.42578125 C-171.76146484 29.58402344 -171.78660156 28.74226563 -171.8125 27.875 C-171.82603516 27.02550781 -171.83957031 26.17601562 -171.85351562 25.30078125 C-171.88891781 23.20025163 -171.94272599 21.10004707 -172 19 C-170.35 19 -168.7 19 -167 19 C-166.505 26.425 -166.505 26.425 -166 34 C-163.3084375 33.319375 -163.3084375 33.319375 -160.5625 32.625 C-155.39108184 31.33061182 -150.20984826 30.12880046 -145 29 C-145 30.32 -145 31.64 -145 33 C-141.37 33 -137.74 33 -134 33 C-134 36.63 -134 40.26 -134 44 C-135.485 44.495 -135.485 44.495 -137 45 C-137 42.03 -137 39.06 -137 36 C-145.58 36.33 -154.16 36.66 -163 37 C-163 40.3 -163 43.6 -163 47 C-165.97 47 -168.94 47 -172 47 C-171.505 49.97 -171.505 49.97 -171 53 C-168.36 53.66 -165.72 54.32 -163 55 C-163 55.99 -163 56.98 -163 58 C-164.39025391 58.48919922 -164.39025391 58.48919922 -165.80859375 58.98828125 C-167.00613281 59.42527344 -168.20367187 59.86226562 -169.4375 60.3125 C-170.63246094 60.74175781 -171.82742187 61.17101562 -173.05859375 61.61328125 C-174.51458984 62.29970703 -174.51458984 62.29970703 -176 63 C-176.495 64.485 -176.495 64.485 -177 66 C-175.86199951 65.54375244 -174.72399902 65.08750488 -173.55151367 64.61743164 C-147.8275606 54.30641435 -122.08504889 44.04420109 -96.30230713 33.88101196 C-91.62146861 32.03560747 -86.94252589 30.18554563 -82.26597595 28.32929993 C-79.60027619 27.27158416 -76.93357221 26.2164185 -74.26663208 25.16183472 C-72.49058544 24.45852179 -70.71585239 23.7518945 -68.94116211 23.04516602 C-67.90741455 22.63709717 -66.87366699 22.22902832 -65.80859375 21.80859375 C-64.91970459 21.45595459 -64.03081543 21.10331543 -63.11499023 20.73999023 C-61 20 -61 20 -59 20 C-59 15.38 -59 10.76 -59 6 C-39.45454191 0.81769146 -20.27263874 -3.33396181 0 0 Z " fill="#030303" transform="translate(349,165)"/>
<path d="M0 0 C3.10440299 0.39135574 6.16790308 0.32675931 9.29296875 0.2890625 C9.40922811 4.85134791 9.48024283 9.41325178 9.54296875 13.9765625 C9.59324219 15.91692383 9.59324219 15.91692383 9.64453125 17.89648438 C9.65742188 19.14365234 9.6703125 20.39082031 9.68359375 21.67578125 C9.70454102 22.82264404 9.72548828 23.96950684 9.74707031 25.15112305 C9.19669522 28.95433329 7.93576492 30.5573734 5.29296875 33.2890625 C2.32856652 35.26928319 0.07023632 35.51780566 -3.45703125 35.4140625 C-4.65585938 35.38699219 -4.65585938 35.38699219 -5.87890625 35.359375 C-6.4821875 35.33617187 -7.08546875 35.31296875 -7.70703125 35.2890625 C-7.70703125 32.9790625 -7.70703125 30.6690625 -7.70703125 28.2890625 C-3.74703125 27.7940625 -3.74703125 27.7940625 0.29296875 27.2890625 C0.62296875 26.2990625 0.95296875 25.3090625 1.29296875 24.2890625 C0.26171875 24.5365625 -0.76953125 24.7840625 -1.83203125 25.0390625 C-6.60037819 25.34669779 -8.13634333 24.36151489 -11.70703125 21.2890625 C-14.45950351 16.86443985 -14.36097065 12.34513051 -13.70703125 7.2890625 C-12.09702735 4.06905469 -10.71610398 2.11794367 -7.95703125 -0.1484375 C-5.1778468 -0.84323361 -2.79935656 -0.49638075 0 0 Z " fill="#0D0C0C" transform="translate(253.70703125,273.7109375)"/>
<path d="M0 0 C4.31646551 2.28518762 7.0976625 4.45552709 9 9 C9.60261569 14.4235412 8.65380547 18.24145226 6 23 C2.41798863 26.26595154 -1.17333803 26.52266899 -5.84765625 26.3515625 C-9.16391744 25.80988644 -10.79216435 24.4754521 -13 22 C-15.37939313 17.92104035 -15.61751925 13.61268169 -15 9 C-13.50282018 5.79175753 -11.72481464 3.27067886 -9 1 C-5.64870516 -0.11709828 -3.51689744 -0.34479387 0 0 Z " fill="#0B0A0A" transform="translate(229,273)"/>
<path d="M0 0 C3.6578218 2.03993908 5.66946174 3.50419262 8 7 C8.2610788 10.02329256 8.08815181 12.95876242 8 16 C3.05 16 -1.9 16 -7 16 C-6.67 16.99 -6.34 17.98 -6 19 C-4.7625 19 -3.525 19 -2.25 19 C0.5 19 3.25 19 6 19 C6.33 20.32 6.66 21.64 7 23 C2.96734287 26.2261257 -0.62875655 26.567144 -5.62109375 26.42578125 C-9.2995081 25.76741152 -10.86803167 23.95724639 -13 21 C-14.54020319 16.37939044 -14.51574193 11.82536624 -14 7 C-10.68270822 1.19473939 -6.60603353 -0.79272402 0 0 Z " fill="#0C0C0C" transform="translate(143,273)"/>
<path d="M0 0 C2.31 0 4.62 0 7 0 C8.98 3.63 10.96 7.26 13 11 C15.14799887 8.1360015 16.42041356 6.38754738 17.6875 3.25 C18.120625 2.1775 18.55375 1.105 19 0 C21.64 0 24.28 0 27 0 C26.7326001 0.49701416 26.4652002 0.99402832 26.18969727 1.50610352 C20.38891665 12.46845681 16.53104912 21.45087452 17 34 C14.69 34 12.38 34 10 34 C10.03222656 33.19820313 10.06445312 32.39640625 10.09765625 31.5703125 C9.98631031 20.6584104 6.10307126 13.00268439 0.81030273 3.65722656 C0 2 0 2 0 0 Z " fill="#F03729" transform="translate(99,265)"/>
<path d="M0 0 C3.1875 1.75 3.1875 1.75 5 4 C5 5.32 5 6.64 5 8 C2.69 8 0.38 8 -2 8 C-2.33 7.34 -2.66 6.68 -3 6 C-4.65 6 -6.3 6 -8 6 C-8 6.66 -8 7.32 -8 8 C-6.84371094 8.39832031 -6.84371094 8.39832031 -5.6640625 8.8046875 C-4.66117187 9.15789062 -3.65828125 9.51109375 -2.625 9.875 C-1.12839844 10.39707031 -1.12839844 10.39707031 0.3984375 10.9296875 C3 12 3 12 5 14 C5.56617647 20.22794118 5.56617647 20.22794118 3.625 22.875 C-0.81733159 25.95046033 -5.77236422 25.68546809 -11 25 C-14.1875 22.6875 -14.1875 22.6875 -16 20 C-16 19.01 -16 18.02 -16 17 C-13.69 17 -11.38 17 -9 17 C-8.67 17.66 -8.34 18.32 -8 19 C-4.97065509 19.65772428 -4.97065509 19.65772428 -2 20 C-2 18.68 -2 17.36 -2 16 C-3.03125 15.9175 -4.0625 15.835 -5.125 15.75 C-9.57241695 14.88920962 -12.77186157 13.22813843 -16 10 C-15.64679823 3.6423681 -15.64679823 3.6423681 -13.2890625 1.30078125 C-9.12098326 -1.0677689 -4.64405816 -0.62516168 0 0 Z " fill="#0A0A0A" transform="translate(373,274)"/>
<path d="M0 0 C3.1875 1.75 3.1875 1.75 5 4 C5 5.32 5 6.64 5 8 C3.02 8 1.04 8 -1 8 C-1.33 7.34 -1.66 6.68 -2 6 C-3.98 6 -5.96 6 -8 6 C-8 6.66 -8 7.32 -8 8 C-7.24074219 8.25394531 -6.48148438 8.50789063 -5.69921875 8.76953125 C-4.70535156 9.11371094 -3.71148437 9.45789063 -2.6875 9.8125 C-1.20830078 10.31716797 -1.20830078 10.31716797 0.30078125 10.83203125 C2.90974621 11.96094662 4.34434148 12.71146177 6 15 C6 18.87428794 5.86830437 21.10275216 3.125 23.9375 C-1.60446751 25.54551895 -6.06607937 25.80629288 -11 25 C-14.1875 22.6875 -14.1875 22.6875 -16 20 C-16 19.01 -16 18.02 -16 17 C-13.69 17 -11.38 17 -9 17 C-8.67 17.66 -8.34 18.32 -8 19 C-6.02 19 -4.04 19 -2 19 C-2 18.34 -2 17.68 -2 17 C-2.77085937 16.73445313 -3.54171875 16.46890625 -4.3359375 16.1953125 C-5.84027344 15.66550781 -5.84027344 15.66550781 -7.375 15.125 C-8.37273437 14.77695312 -9.37046875 14.42890625 -10.3984375 14.0703125 C-13 13 -13 13 -15 11 C-15.41275616 7.28519457 -15.47674327 4.88538036 -13.6875 1.5625 C-9.322907 -0.97505407 -4.91393164 -0.72691297 0 0 Z " fill="#084FAF" transform="translate(170,274)"/>
<path d="M0 0 C3.1875 1.75 3.1875 1.75 5 4 C5 5.32 5 6.64 5 8 C3.02 8 1.04 8 -1 8 C-1.33 7.34 -1.66 6.68 -2 6 C-3.98 6 -5.96 6 -8 6 C-8 6.66 -8 7.32 -8 8 C-7.24074219 8.25394531 -6.48148437 8.50789063 -5.69921875 8.76953125 C-4.70535156 9.11371094 -3.71148437 9.45789063 -2.6875 9.8125 C-1.20830078 10.31716797 -1.20830078 10.31716797 0.30078125 10.83203125 C2.90974621 11.96094662 4.34434148 12.71146177 6 15 C6 18.87428794 5.86830437 21.10275216 3.125 23.9375 C-1.60446751 25.54551895 -6.06607937 25.80629288 -11 25 C-14.1875 22.6875 -14.1875 22.6875 -16 20 C-16 19.01 -16 18.02 -16 17 C-13.69 17 -11.38 17 -9 17 C-8.67 17.66 -8.34 18.32 -8 19 C-6.02 19 -4.04 19 -2 19 C-2 18.34 -2 17.68 -2 17 C-2.77085937 16.73445313 -3.54171875 16.46890625 -4.3359375 16.1953125 C-5.84027344 15.66550781 -5.84027344 15.66550781 -7.375 15.125 C-8.37273437 14.77695312 -9.37046875 14.42890625 -10.3984375 14.0703125 C-13 13 -13 13 -15 11 C-15.41275616 7.28519457 -15.47674327 4.88538036 -13.6875 1.5625 C-9.322907 -0.97505407 -4.91393164 -0.72691297 0 0 Z " fill="#090909" transform="translate(294,274)"/>
<path d="M0 0 C2.31 0 4.62 0 7 0 C7 9.24 7 18.48 7 28 C12.61 28 18.22 28 24 28 C24 29.98 24 31.96 24 34 C16.08 34 8.16 34 0 34 C0 22.78 0 11.56 0 0 Z " fill="#030303" transform="translate(188,265)"/>
<path d="M0 0 C3.0625 2.3125 3.0625 2.3125 5 5 C5 6.32 5 7.64 5 9 C3.02 9 1.04 9 -1 9 C-1.33 8.01 -1.66 7.02 -2 6 C-3.99954746 5.95745644 -6.00041636 5.95919217 -8 6 C-9.25173779 7.03033389 -9.25173779 7.03033389 -9.1328125 9.25 C-9.13023437 10.1575 -9.12765625 11.065 -9.125 12 C-9.12757813 12.9075 -9.13015625 13.815 -9.1328125 14.75 C-9.25173779 16.96966611 -9.25173779 16.96966611 -8 18 C-5.54190002 18.2500773 -5.54190002 18.2500773 -3 18 C-2.34 17.34 -1.68 16.68 -1 16 C2.125 15.875 2.125 15.875 5 16 C4.76774367 19.48384489 4.62008825 21.3999146 2.0625 23.875 C-2.34198125 25.4929727 -6.36911989 25.82884389 -11 25 C-14.34625024 22.47323961 -15.67977847 20.96066458 -17 17 C-17.48420096 11.87223242 -17.84808044 7.48414077 -15.25 2.9375 C-10.3032022 -1.32224255 -6.22371538 -1.72757936 0 0 Z " fill="#0B0B0B" transform="translate(349,274)"/>
<path d="M0 0 C-0.33 0.99 -0.66 1.98 -1 3 C-3.69035026 4.20057976 -6.28848759 5.22808495 -9.0625 6.1875 C-9.82111328 6.46013672 -10.57972656 6.73277344 -11.36132812 7.01367188 C-13.2371992 7.68615396 -15.11815203 8.34442951 -17 9 C-17.33 12.96 -17.66 16.92 -18 21 C-20.76825188 22.17314026 -23.53928486 23.33870215 -26.3125 24.5 C-27.09818359 24.83386719 -27.88386719 25.16773438 -28.69335938 25.51171875 C-29.45068359 25.82753906 -30.20800781 26.14335937 -30.98828125 26.46875 C-32.03302612 26.90864258 -32.03302612 26.90864258 -33.09887695 27.35742188 C-35 28 -35 28 -38 28 C-38 23.38 -38 18.76 -38 14 C-28.32055674 10.09251983 -18.63941528 6.19125867 -8.875 2.5 C-8.20726562 2.24524902 -7.53953125 1.99049805 -6.8515625 1.72802734 C-2.24026038 0 -2.24026038 0 0 0 Z " fill="#F13728" transform="translate(303,160)"/>
<path d="M0 0 C-0.33 0.99 -0.66 1.98 -1 3 C-3.69035026 4.20057976 -6.28848759 5.22808495 -9.0625 6.1875 C-9.82111328 6.46013672 -10.57972656 6.73277344 -11.36132812 7.01367188 C-13.2371992 7.68615396 -15.11815203 8.34442951 -17 9 C-17.33 12.96 -17.66 16.92 -18 21 C-19.89564426 21.79211929 -21.79152371 22.58367576 -23.6875 23.375 C-24.74324219 23.81585938 -25.79898437 24.25671875 -26.88671875 24.7109375 C-27.91410156 25.13632813 -28.94148438 25.56171875 -30 26 C-30.89332031 26.38414062 -31.78664063 26.76828125 -32.70703125 27.1640625 C-35 28 -35 28 -38 28 C-38 23.38 -38 18.76 -38 14 C-32.91134119 12.00188722 -27.82099079 10.00817098 -22.72900391 8.01855469 C-20.99610646 7.34073281 -19.26368202 6.66170038 -17.53173828 5.98144531 C-15.04582359 5.00529335 -12.55825434 4.03347167 -10.0703125 3.0625 C-9.29317902 2.75626709 -8.51604553 2.45003418 -7.71536255 2.13452148 C-2.22774341 0 -2.22774341 0 0 0 Z " fill="#F13627" transform="translate(302,144)"/>
<path d="M0 0 C2.31 0 4.62 0 7 0 C7 2.31 7 4.62 7 7 C8.65 7 10.3 7 12 7 C12 8.65 12 10.3 12 12 C10.35 12 8.7 12 7 12 C7.33 16.29 7.66 20.58 8 25 C9.32 25.33 10.64 25.66 12 26 C12 27.98 12 29.96 12 32 C4.72727273 32.48484848 4.72727273 32.48484848 1.75 30.5 C-0.69466761 27.00761771 -0.43798423 23.84227203 -0.25 19.75 C-0.23195313 19.00492187 -0.21390625 18.25984375 -0.1953125 17.4921875 C-0.14835649 15.66090299 -0.07661652 13.83028351 0 12 C-1.32 12 -2.64 12 -4 12 C-4 10.35 -4 8.7 -4 7 C-2.68 7 -1.36 7 0 7 C0 4.69 0 2.38 0 0 Z " fill="#0B0B0B" transform="translate(305,267)"/>
<path d="M0 0 C0.95397287 4.76986433 1.03998805 9.16144615 1 14 C-2.12305373 15.17192435 -5.24874739 16.33663876 -8.375 17.5 C-9.26445312 17.83386719 -10.15390625 18.16773438 -11.0703125 18.51171875 C-11.92109375 18.82753906 -12.771875 19.14335937 -13.6484375 19.46875 C-14.82672119 19.90864258 -14.82672119 19.90864258 -16.02880859 20.35742188 C-18 21 -18 21 -20 21 C-20 16.38 -20 11.76 -20 7 C-11.11328125 3.2890625 -11.11328125 3.2890625 -8 2 C-7.10667969 1.61585938 -6.21335938 1.23171875 -5.29296875 0.8359375 C-3 0 -3 0 0 0 Z " fill="#F13A2C" transform="translate(261,160)"/>
<path d="M0 0 C0.84729143 3.28325429 1.05569585 6.32093468 1.03125 9.69140625 C1.02673828 10.49908447 1.02222656 11.3067627 1.01757812 12.13891602 C1.01177734 12.75307373 1.00597656 13.36723145 1 14 C-1.76825188 15.17314026 -4.53928486 16.33870215 -7.3125 17.5 C-8.09818359 17.83386719 -8.88386719 18.16773438 -9.69335938 18.51171875 C-10.45068359 18.82753906 -11.20800781 19.14335937 -11.98828125 19.46875 C-13.03302612 19.90864258 -13.03302612 19.90864258 -14.09887695 20.35742188 C-16 21 -16 21 -19 21 C-20.04976964 17.85069107 -20.10131595 15.61185544 -20.0625 12.3125 C-20.05347656 11.31863281 -20.04445312 10.32476562 -20.03515625 9.30078125 C-20.02355469 8.54152344 -20.01195312 7.78226563 -20 7 C-16.85512993 5.83072496 -13.70894919 4.66501836 -10.5625 3.5 C-9.66466797 3.16613281 -8.76683594 2.83226562 -7.84179688 2.48828125 C-6.98779297 2.17246094 -6.13378906 1.85664063 -5.25390625 1.53125 C-4.46314697 1.23798828 -3.6723877 0.94472656 -2.85766602 0.64257812 C-1 0 -1 0 0 0 Z " fill="#F13A2C" transform="translate(237,152)"/>
<path d="M0 0 C0.495 6.93 0.495 6.93 1 14 C-1.9351605 15.17286739 -4.87284842 16.33849007 -7.8125 17.5 C-8.64587891 17.83386719 -9.47925781 18.16773438 -10.33789062 18.51171875 C-11.14033203 18.82753906 -11.94277344 19.14335937 -12.76953125 19.46875 C-13.87711792 19.90864258 -13.87711792 19.90864258 -15.00708008 20.35742188 C-17 21 -17 21 -20 21 C-20 16.38 -20 11.76 -20 7 C-17.04322789 5.82923771 -14.08473257 4.66323329 -11.125 3.5 C-10.28324219 3.16613281 -9.44148437 2.83226562 -8.57421875 2.48828125 C-7.76855469 2.17246094 -6.96289062 1.85664063 -6.1328125 1.53125 C-5.38918457 1.23798828 -4.64555664 0.94472656 -3.87939453 0.64257812 C-2 0 -2 0 0 0 Z " fill="#F1392B" transform="translate(239,184)"/>
<path d="M0 0 C0.495 6.93 0.495 6.93 1 14 C-1.93326608 15.1990211 -4.87081261 16.38447873 -7.8125 17.5625 C-9.06256836 18.07586914 -9.06256836 18.07586914 -10.33789062 18.59960938 C-11.54155273 19.07817383 -11.54155273 19.07817383 -12.76953125 19.56640625 C-13.50792236 19.86490479 -14.24631348 20.16340332 -15.00708008 20.47094727 C-17 21 -17 21 -20 20 C-20 15.71 -20 11.42 -20 7 C-16.8548775 5.83138576 -13.7089536 4.66501999 -10.5625 3.5 C-9.66466797 3.16613281 -8.76683594 2.83226562 -7.84179688 2.48828125 C-6.98779297 2.17246094 -6.13378906 1.85664063 -5.25390625 1.53125 C-4.46314697 1.23798828 -3.6723877 0.94472656 -2.85766602 0.64257812 C-1 0 -1 0 0 0 Z " fill="#F1392A" transform="translate(238,168)"/>
<path d="M0 0 C0.33 4.29 0.66 8.58 1 13 C-5.94166815 15.9522037 -12.80958737 18.723036 -20 21 C-20 16.05 -20 11.1 -20 6 C-17.41958904 4.99183944 -14.83613056 3.9932889 -12.25 3 C-11.15558594 2.57074219 -11.15558594 2.57074219 -10.0390625 2.1328125 C-9.33007812 1.86210937 -8.62109375 1.59140625 -7.890625 1.3125 C-7.24125977 1.06113281 -6.59189453 0.80976563 -5.92285156 0.55078125 C-4 0 -4 0 0 0 Z " fill="#F1392A" transform="translate(262,176)"/>
<path d="M0 0 C0.495 6.93 0.495 6.93 1 14 C-5.6 16.31 -12.2 18.62 -19 21 C-19.33 16.38 -19.66 11.76 -20 7 C-11.11328125 3.2890625 -11.11328125 3.2890625 -8 2 C-7.10667969 1.61585938 -6.21335938 1.23171875 -5.29296875 0.8359375 C-3 0 -3 0 0 0 Z " fill="#F13829" transform="translate(260,144)"/>
<path d="M0 0 C2.31 0 4.62 0 7 0 C7 8.25 7 16.5 7 25 C4.69 25 2.38 25 0 25 C0 16.75 0 8.5 0 0 Z " fill="#050505" transform="translate(321,274)"/>
<path d="M0 0 C2.31 0 4.62 0 7 0 C7 8.25 7 16.5 7 25 C4.69 25 2.38 25 0 25 C0 16.75 0 8.5 0 0 Z " fill="#0D0D0D" transform="translate(268,274)"/>
<path d="M0 0 C0.9796875 0.00322266 1.959375 0.00644531 2.96875 0.00976562 C3.98453125 0.01814453 5.0003125 0.02652344 6.046875 0.03515625 C7.59375 0.04192383 7.59375 0.04192383 9.171875 0.04882812 C11.71360073 0.06059537 14.25520819 0.07703614 16.796875 0.09765625 C16.466875 2.40765625 16.136875 4.71765625 15.796875 7.09765625 C14.476875 7.09765625 13.156875 7.09765625 11.796875 7.09765625 C11.466875 5.77765625 11.136875 4.45765625 10.796875 3.09765625 C10.466875 4.41765625 10.136875 5.73765625 9.796875 7.09765625 C8.146875 7.09765625 6.496875 7.09765625 4.796875 7.09765625 C4.796875 5.11765625 4.796875 3.13765625 4.796875 1.09765625 C3.806875 1.09765625 2.816875 1.09765625 1.796875 1.09765625 C1.796875 3.07765625 1.796875 5.05765625 1.796875 7.09765625 C1.075 7.07703125 0.353125 7.05640625 -0.390625 7.03515625 C-3.12237638 7.09586184 -5.54568591 7.4902416 -8.203125 8.09765625 C-8.533125 9.08765625 -8.863125 10.07765625 -9.203125 11.09765625 C-9.203125 7.79765625 -9.203125 4.49765625 -9.203125 1.09765625 C-5.80548424 0.24824606 -3.4333923 -0.01996158 0 0 Z " fill="#E07C74" transform="translate(195.203125,200.90234375)"/>
<path d="M0 0 C0.33 0 0.66 0 1 0 C1 4.29 1 8.58 1 13 C4.15593435 11.96198178 7.29742393 10.8966006 10.4375 9.8125 C11.78424805 9.37454102 11.78424805 9.37454102 13.15820312 8.92773438 C14.43920898 8.47817383 14.43920898 8.47817383 15.74609375 8.01953125 C16.53685303 7.75245361 17.3276123 7.48537598 18.14233398 7.21020508 C20.27856992 6.10586645 20.27856992 6.10586645 20.76586914 3.3737793 C20.84313232 2.59043213 20.92039551 1.80708496 21 1 C21.33 1 21.66 1 22 1 C22 3.31 22 5.62 22 8 C19.04380781 9.1721449 16.08471211 10.33677476 13.125 11.5 C12.28324219 11.83386719 11.44148438 12.16773438 10.57421875 12.51171875 C9.36572266 12.98544922 9.36572266 12.98544922 8.1328125 13.46875 C7.38918457 13.76201172 6.64555664 14.05527344 5.87939453 14.35742188 C4 15 4 15 2 15 C2 16.98 2 18.96 2 21 C1.67 21 1.34 21 1 21 C0.67 23.64 0.34 26.28 0 29 C-0.33 29 -0.66 29 -1 29 C-1 25.04 -1 21.08 -1 17 C-1.95261719 17.3609375 -2.90523438 17.721875 -3.88671875 18.09375 C-5.15348884 18.56292411 -6.4204248 19.03165052 -7.6875 19.5 C-8.62625977 19.85771484 -8.62625977 19.85771484 -9.58398438 20.22265625 C-13.18192299 21.5412725 -16.16520253 22.29329235 -20 22 C-16.89173772 19.92782515 -13.98123641 18.71574645 -10.5 17.375 C-9.3553125 16.92898437 -8.210625 16.48296875 -7.03125 16.0234375 C-4 15 -4 15 -1 15 C-1.09539062 14.08476562 -1.19078125 13.16953125 -1.2890625 12.2265625 C-1.39992188 11.03804687 -1.51078125 9.84953125 -1.625 8.625 C-1.79902344 6.84996094 -1.79902344 6.84996094 -1.9765625 5.0390625 C-1.98429687 4.03617188 -1.99203125 3.03328125 -2 2 C-1.34 1.34 -0.68 0.68 0 0 Z " fill="#EFC6C3" transform="translate(263,159)"/>
<path d="M0 0 C0 1.32 0 2.64 0 4 C3.63 4 7.26 4 11 4 C11 7.63 11 11.26 11 15 C10.01 15.33 9.02 15.66 8 16 C8 13.03 8 10.06 8 7 C0.74 7 -6.52 7 -14 7 C-14.33 6.01 -14.66 5.02 -15 4 C-13.06441401 3.32779649 -11.12645628 2.66241923 -9.1875 2 C-8.10855469 1.62875 -7.02960938 1.2575 -5.91796875 0.875 C-3 0 -3 0 0 0 Z " fill="#151515" transform="translate(204,194)"/>
<path d="M0 0 C2.4375 0.875 2.4375 0.875 4.4375 3.875 C4.8891129 10.19758065 4.8891129 10.19758065 2.4375 13.875 C-0.5625 14.25 -0.5625 14.25 -3.5625 13.875 C-6.09936376 10.06970436 -6.15605135 7.33590938 -5.5625 2.875 C-3.92978469 0.0392313 -3.26331106 -0.15918591 0 0 Z " fill="#DBD6D6" transform="translate(226.5625,279.125)"/>
<path d="M0 0 C4.875 0.875 4.875 0.875 6 2 C6.1245486 3.64230364 6.17568524 5.29052276 6.1875 6.9375 C6.20167969 7.83339844 6.21585937 8.72929687 6.23046875 9.65234375 C6 12 6 12 4 14 C0.70285207 13.67028521 -0.6226839 13.3773161 -3 11 C-3.35173852 7.20122401 -3.52701444 4.85639847 -1.5 1.5625 C-1.005 1.046875 -0.51 0.53125 0 0 Z " fill="#E0DBDB" transform="translate(250,279)"/>
<path d="M0 0 C2.5 0.125 2.5 0.125 3.5 1.125 C3.625 4.125 3.625 4.125 3.5 7.125 C2.5 8.125 2.5 8.125 0.0625 8.3125 C-2.5 8.125 -2.5 8.125 -4.5 6.125 C-3.77607362 0.18880368 -3.77607362 0.18880368 0 0 Z " fill="#101010" transform="translate(324.5,262.875)"/>
<path d="M0 0 C4.55555556 0.55555556 4.55555556 0.55555556 6 2 C6.125 4.5 6.125 4.5 6 7 C5 8 5 8 1.9375 8.0625 C0.968125 8.041875 -0.00125 8.02125 -1 8 C-1.625 5.125 -1.625 5.125 -2 2 C-1.34 1.34 -0.68 0.68 0 0 Z " fill="#0B0B0B" transform="translate(269,263)"/>
<path d="M0 0 C2.64 0 5.28 0 8 0 C8 1.98 8 3.96 8 6 C5.69 6.33 3.38 6.66 1 7 C0.67 7.99 0.34 8.98 0 10 C0 6.7 0 3.4 0 0 Z " fill="#ED9C96" transform="translate(186,202)"/>
<path d="M0 0 C-0.33 0.99 -0.66 1.98 -1 3 C-3.6468981 4.12559122 -6.21615147 5.09680394 -8.9375 6 C-14.80504589 7.74649134 -14.80504589 7.74649134 -19 12 C-19 11.01 -19 10.02 -19 9 C-20.32 8.67 -21.64 8.34 -23 8 C-19.54372619 6.66128359 -16.08465703 5.32994608 -12.625 4 C-11.64015625 3.6184375 -10.6553125 3.236875 -9.640625 2.84375 C-8.69960938 2.4828125 -7.75859375 2.121875 -6.7890625 1.75 C-5.91975098 1.41484375 -5.05043945 1.0796875 -4.15478516 0.734375 C-2 0 -2 0 0 0 Z " fill="#F25043" transform="translate(302,144)"/>
<path d="M0 0 C-0.19140625 1.859375 -0.19140625 1.859375 -1 4 C-3.21484375 5.265625 -3.21484375 5.265625 -5.9375 6.25 C-6.83339844 6.58515625 -7.72929687 6.9203125 -8.65234375 7.265625 C-11 8 -11 8 -13 8 C-12.80859375 6.140625 -12.80859375 6.140625 -12 4 C-9.78515625 2.734375 -9.78515625 2.734375 -7.0625 1.75 C-6.16660156 1.41484375 -5.27070313 1.0796875 -4.34765625 0.734375 C-2 0 -2 0 0 0 Z " fill="#D6D2D2" transform="translate(185,223)"/>
<path d="M0 0 C-1 3 -1 3 -3.80078125 4.45703125 C-4.95964844 4.90433594 -6.11851562 5.35164062 -7.3125 5.8125 C-8.46363281 6.27269531 -9.61476563 6.73289063 -10.80078125 7.20703125 C-14 8 -14 8 -16.41796875 7.13671875 C-16.94003906 6.76160156 -17.46210938 6.38648438 -18 6 C-15.37646482 4.99600476 -12.75132205 3.99665555 -10.125 3 C-9.37863281 2.71382812 -8.63226563 2.42765625 -7.86328125 2.1328125 C-2.2265625 0 -2.2265625 0 0 0 Z " fill="#F25043" transform="translate(303,160)"/>
<path d="M0 0 C-3.25448097 2.16965398 -6.5253585 3.36143262 -10.1875 4.625 C-10.84169922 4.85445312 -11.49589844 5.08390625 -12.16992188 5.3203125 C-13.77864135 5.88395144 -15.38914977 6.44247984 -17 7 C-17.66 6.34 -18.32 5.68 -19 5 C-16.39985473 3.96772138 -13.79573631 2.94894848 -11.1875 1.9375 C-10.44951172 1.64294922 -9.71152344 1.34839844 -8.95117188 1.04492188 C-3.33984375 -1.11328125 -3.33984375 -1.11328125 0 0 Z " fill="#EFC7C4" transform="translate(261,159)"/>
<path d="M0 0 C0.33 0 0.66 0 1 0 C1 1.65 1 3.3 1 5 C1.71655762 4.98952637 2.43311523 4.97905273 3.17138672 4.96826172 C6.40588905 4.92678701 9.64033553 4.90070108 12.875 4.875 C14.00292969 4.85824219 15.13085938 4.84148437 16.29296875 4.82421875 C17.36933594 4.81777344 18.44570313 4.81132812 19.5546875 4.8046875 C20.54968262 4.79421387 21.54467773 4.78374023 22.56982422 4.77294922 C25 5 25 5 27 7 C25.68 7.33 24.36 7.66 23 8 C23 7.34 23 6.68 23 6 C15.41 6 7.82 6 0 6 C0 4.02 0 2.04 0 0 Z " fill="#2F2E2E" transform="translate(333,230)"/>
<path d="M0 0 C1.67542976 0.28604898 3.34385343 0.61781233 5 1 C5.33 2.32 5.66 3.64 6 5 C3.36 5 0.72 5 -2 5 C-1.125 1.125 -1.125 1.125 0 0 Z " fill="#CECACA" transform="translate(138,279)"/>
<path d="M0 0 C0 0.33 0 0.66 0 1 C-2.31 1.33 -4.62 1.66 -7 2 C-7 2.66 -7 3.32 -7 4 C-10.63 3.67 -14.26 3.34 -18 3 C-12.39004157 -0.73997229 -6.52699931 -0.11406407 0 0 Z " fill="#262525" transform="translate(135,240)"/>
<path d="M0 0 C0.33 0 0.66 0 1 0 C1 3.63 1 7.26 1 11 C0.01 11.33 -0.98 11.66 -2 12 C-2.05422947 10.5629191 -2.09289723 9.12524538 -2.125 7.6875 C-2.14820313 6.88699219 -2.17140625 6.08648437 -2.1953125 5.26171875 C-2 3 -2 3 0 0 Z " fill="#323030" transform="translate(214,198)"/>
<path d="M0 0 C0.99 0 1.98 0 3 0 C3 1.98 3 3.96 3 6 C2.01 6 1.02 6 0 6 C0 4.02 0 2.04 0 0 Z " fill="#F34538" transform="translate(201,202)"/>
</svg>
